<svg xmlns="http://www.w3.org/2000/svg" viewBox="0 0 255.55 282.23"><defs><style>.cls-1{fill:#99425B;}</style></defs><g id="Слой_2" data-name="Слой 2"><g id="Слой_1-2" data-name="Слой 1"><path class="cls-1" d="M235.5,190.2a38.5,38.5,0,0,1-18.86,26.67c-9.37,5.43-20.6,7-32.49,8.76-6.37.92-13,1.87-19.39,3.46-17,4.19-33.49,12.38-49.42,20.29-31.89,15.84-59.43,29.52-85.4,11.52C10.92,247.72,11.8,223.33,14,210c2.06-12.38,7.61-23.79,13-34.82q1.36-2.8,2.72-5.63a32.87,32.87,0,0,0,8.44,2.12c-5.46,18,3.13,37.65,21.18,46.92l2.47,1.27,2.61-.93a111.11,111.11,0,0,0,39.06-24.23,121.63,121.63,0,0,0,19.34-23.38,33.44,33.44,0,0,0,4.89.37,32.74,32.74,0,0,0,32.4-28.37c6.77-.25,14-.25,20.79,0a32.65,32.65,0,0,0,51,22.51,39.93,39.93,0,0,1,3.58,24.41ZM41.8,119.29A19.85,19.85,0,0,1,43.16,159c-.45,0-.9.05-1.36.05a19.73,19.73,0,0,1-6.94-1.25A20,20,0,0,1,24.56,149,19.56,19.56,0,0,1,22,139.15,19.88,19.88,0,0,1,41.8,119.29ZM107.85,139a19.87,19.87,0,0,1,16.91-19.63,19,19,0,0,1,2.94-.22A19.86,19.86,0,0,1,147.56,139a19.46,19.46,0,0,1-.55,4.61,19.89,19.89,0,0,1-17.3,15.14,19,19,0,0,1-2,.11A19.9,19.9,0,0,1,107.85,139Zm82.86-23.61a32.68,32.68,0,0,0-9,15.12q-11.22-.42-22.45,0a32.83,32.83,0,0,0-9.85-15.91L170,73ZM102.22,12.83H237.65l-32,94.35a33.83,33.83,0,0,0-4,1.25L170,44l-31.69,64.08a30.94,30.94,0,0,0-4.22-1.14ZM233.14,139A19.86,19.86,0,1,1,195,131.3a20.44,20.44,0,0,1,1.87-3.44,19.86,19.86,0,0,1,16.44-8.75q.94,0,1.86.09a19.88,19.88,0,0,1,18,19.76ZM246,139a32.72,32.72,0,0,0-26.64-32.11L255.55,0H84.32L120.6,107.06a32.67,32.67,0,0,0-10.13,59.66,109.32,109.32,0,0,1-15.8,18.6,99.15,99.15,0,0,1-31.85,20.47c-11.63-7.31-16.54-21.08-11.44-33.07l.4-.94.75-1.76a32.71,32.71,0,1,0-33.66-7.6q-1.68,3.57-3.42,7.11c-5.5,11.3-11.74,24.11-14.1,38.33-4.68,28.25,2.88,50.84,21.28,63.59a58,58,0,0,0,33.92,10.78c21.49,0,43.23-10.79,64.5-21.35,15.31-7.61,31.15-15.48,46.79-19.33,5.82-1.44,11.8-2.3,18.14-3.22,12.58-1.81,25.58-3.68,37.09-10.35a51.33,51.33,0,0,0,25.07-35.59,53,53,0,0,0-7-36.42A32.44,32.44,0,0,0,246,139Z"/></g></g></svg>
