<svg xmlns="http://www.w3.org/2000/svg" viewBox="0 0 122.87 100.33"><defs><style>.cls-1{fill:#8fd9ef;fill-rule:evenodd;}</style></defs><g id="Слой_2" data-name="Слой 2"><g id="Layer_1" data-name="Layer 1"><path class="cls-1" d="M102.79,7.11l2.59,3.41a2.05,2.05,0,0,1-.39,2.87l-2.75,2.09a16,16,0,0,1,1,4.2l3.13.43a2.05,2.05,0,0,1,1.75,2.31l-.58,4.25a2,2,0,0,1-2.31,1.75L101.76,28a15.94,15.94,0,0,1-2.31,3.64l1.92,2.52A2.05,2.05,0,0,1,101,37l-3.41,2.59a2.06,2.06,0,0,1-2.87-.39L92.6,36.43a16.1,16.1,0,0,1-4.21,1L88,40.51a2.05,2.05,0,0,1-2.31,1.75l-4.25-.58a2.05,2.05,0,0,1-1.75-2.31L80.12,36a16.49,16.49,0,0,1-3.64-2.3L74,35.56a2.05,2.05,0,0,1-2.87-.39L68.5,31.76a2.05,2.05,0,0,1,.39-2.87l2.75-2.09a16.12,16.12,0,0,1-1-4.2l-3.13-.43a2,2,0,0,1-1.75-2.31l.58-4.25a2.06,2.06,0,0,1,2.31-1.75l3.42.47a16.49,16.49,0,0,1,2.3-3.64L72.51,8.17a2,2,0,0,1,.39-2.86l3.41-2.59a2.05,2.05,0,0,1,2.87.39l2.09,2.75a16,16,0,0,1,4.2-1l.43-3.13A2.06,2.06,0,0,1,88.21,0L92.46.6a2,2,0,0,1,1.75,2.31l-.47,3.42a16.23,16.23,0,0,1,3.65,2.31l2.52-1.91a2.05,2.05,0,0,1,2.88.38Zm-73.12,60V50.62h8.5a11.93,11.93,0,0,1,3.61.41,3.81,3.81,0,0,1,2,1.5,5.05,5.05,0,0,1,.18,5,4.54,4.54,0,0,1-1.61,1.62,6.09,6.09,0,0,1-1.79.65,4.84,4.84,0,0,1,1.32.61,5.18,5.18,0,0,1,.81.87,6.68,6.68,0,0,1,.71,1l2.48,4.77H40.13l-2.72-5a3.88,3.88,0,0,0-.92-1.27,2.19,2.19,0,0,0-1.25-.38h-.45v6.68H29.67Zm18,28.73H38.13l-1.37,4.48H28.18L38.41,73.14h9.2L57.8,100.33H49l-1.35-4.48ZM45.87,90l-3-9.78-3,9.78ZM59.78,73.14h14q4.58,0,6.84,2.17a8.19,8.19,0,0,1,2.27,6.19A8.42,8.42,0,0,1,80.39,88c-1.65,1.55-4.18,2.32-7.57,2.32H68.21v10.06H59.78V73.14Zm8.43,11.62h2.07a5.33,5.33,0,0,0,3.44-.85,2.72,2.72,0,0,0,1-2.16,3,3,0,0,0-.86-2.17,4.49,4.49,0,0,0-3.23-.89H68.21v6.07ZM86.27,73.14H94.7v27.19H86.27V73.14ZM34.79,57.32h2.15a7.93,7.93,0,0,0,1.35-.23,1.34,1.34,0,0,0,.83-.52,1.68,1.68,0,0,0-.19-2.19A3,3,0,0,0,37,54H34.79v3.37Zm12.08-6.7H60.52v3.52H52v2.63H59.9v3.36H52v3.25h8.78v3.73H46.87V50.62ZM62,61.66l4.84-.3a3.61,3.61,0,0,0,.64,1.79,2.73,2.73,0,0,0,2.25,1,2.5,2.5,0,0,0,1.68-.51A1.55,1.55,0,0,0,72,62.45a1.53,1.53,0,0,0-.56-1.15,6.55,6.55,0,0,0-2.61-1,11.16,11.16,0,0,1-4.78-2,4,4,0,0,1-1.44-3.18,4.32,4.32,0,0,1,.74-2.4A4.89,4.89,0,0,1,65.55,51a10.41,10.41,0,0,1,4.06-.64,8.25,8.25,0,0,1,4.82,1.18,5.11,5.11,0,0,1,2,3.75l-4.79.29a2.62,2.62,0,0,0-.8-1.63,2.58,2.58,0,0,0-1.69-.51,2.06,2.06,0,0,0-1.34.38,1.16,1.16,0,0,0-.45.92,1,1,0,0,0,.37.71,4.26,4.26,0,0,0,1.7.61,21.36,21.36,0,0,1,4.79,1.46,5,5,0,0,1,2.1,1.83A4.6,4.6,0,0,1,77,61.77a5.16,5.16,0,0,1-.88,2.92,5.46,5.46,0,0,1-2.45,2,9.92,9.92,0,0,1-4,.69c-2.8,0-4.75-.54-5.83-1.62A6.52,6.52,0,0,1,62,61.66Zm15.71-11H93.2V54.7H88V67.12H82.9V54.7H77.69V50.62ZM60.53,11.46a31.69,31.69,0,0,0-5.51.06,30.16,30.16,0,0,0-15.62,6.1A29.31,29.31,0,0,0,28.67,35.76l-.48,2.51-2.5.44a34.43,34.43,0,0,0-6.56,1.77,21.94,21.94,0,0,0-5,2.66,16.49,16.49,0,0,0-3,2.8A17,17,0,0,0,7.33,57a20.07,20.07,0,0,0,3.79,11.53A18.84,18.84,0,0,0,14.28,72a15.86,15.86,0,0,0,4.13,2.48,19.52,19.52,0,0,0,2.77.9v7.49a27,27,0,0,1-5.56-1.61,23.17,23.17,0,0,1-6-3.63,25.82,25.82,0,0,1-4.4-4.72A27.5,27.5,0,0,1,0,57.06,24.29,24.29,0,0,1,5.52,41.21a23.62,23.62,0,0,1,4.34-4,29.26,29.26,0,0,1,6.64-3.55A40.17,40.17,0,0,1,22,31.94,36.16,36.16,0,0,1,34.92,11.8,37.54,37.54,0,0,1,54.34,4.21a39.63,39.63,0,0,1,11,.49,8.4,8.4,0,0,0-.19,1v.06a9.86,9.86,0,0,0-.07,1.72A8.68,8.68,0,0,0,63,8.69l0,0a9,9,0,0,0-2.4,2.75Zm52.91,19.2c.56.51,1.1,1,1.63,1.61a29.19,29.19,0,0,1,3,3.9,33,33,0,0,1,4.77,17.92c-.07,6.31-1.77,12.59-5.25,17.21A27.45,27.45,0,0,1,109,78.72a41,41,0,0,1-8,3.35V74.32a32.36,32.36,0,0,0,4.4-2,20,20,0,0,0,6.39-5.41c2.5-3.33,3.73-8,3.78-12.87a25.47,25.47,0,0,0-3.59-13.86,20.75,20.75,0,0,0-2.25-2.89c-.31-.33-.62-.64-.94-.94a9.62,9.62,0,0,0,0-1.52,8.68,8.68,0,0,0,2.14-1.21l0,0a9.08,9.08,0,0,0,2.5-2.94ZM88.08,12.8A8.43,8.43,0,1,1,78.59,20a8.42,8.42,0,0,1,9.49-7.21Z"/></g></g></svg>