<svg xmlns="http://www.w3.org/2000/svg" viewBox="0 0 283 282.92"><defs><style>.cls-1,.cls-2,.cls-3{fill:#ffb13b;}.cls-1,.cls-2{stroke:#000;}.cls-1{stroke-width:38.01px;}.cls-2{stroke-width:38.01px;}.cls-4{fill:#fff;}</style></defs><g id="Слой_2" data-name="Слой 2"><g id="Слой_1-2" data-name="Слой 1"><path id="base" d="M0,141.42H283v100c0,23.5-18,41.5-41.5,41.5H41.5c-23.5,0-41.5-18-41.5-41.5Z"/><g id="svgstar"><path id="svgbar" class="cls-1" d="M57.35,125.57a22.42,22.42,0,1,0,0,31.7h168.3a22.42,22.42,0,1,0,0-31.7Z"/><path id="svgbar-2" data-name="svgbar" class="cls-2" d="M93.21,70.71A22.42,22.42,0,1,0,70.79,93.13l119,119a22.42,22.42,0,1,0,22.42-22.42Z"/><path id="svgbar-3" data-name="svgbar" class="cls-1" d="M157.35,57.27a22.42,22.42,0,1,0-31.7,0v168.3a22.42,22.42,0,1,0,31.7,0Z"/><path id="svgbar-4" data-name="svgbar" class="cls-2" d="M212.21,93.13a22.42,22.42,0,1,0-22.42-22.42l-119,119a22.42,22.42,0,1,0,22.42,22.42Z"/></g><g id="svgstar-2" data-name="svgstar"><path id="svgbar-5" data-name="svgbar" class="cls-3" d="M57.35,125.57a22.42,22.42,0,1,0,0,31.7h168.3a22.42,22.42,0,1,0,0-31.7Z"/><path id="svgbar-6" data-name="svgbar" class="cls-3" d="M93.21,70.71A22.42,22.42,0,1,0,70.79,93.13l119,119a22.42,22.42,0,1,0,22.42-22.42Z"/><path id="svgbar-7" data-name="svgbar" class="cls-3" d="M157.35,57.27a22.42,22.42,0,1,0-31.7,0v168.3a22.42,22.42,0,1,0,31.7,0Z"/><path id="svgbar-8" data-name="svgbar" class="cls-3" d="M212.21,93.13a22.42,22.42,0,1,0-22.42-22.42l-119,119a22.42,22.42,0,1,0,22.42,22.42Z"/></g><path id="base-2" data-name="base" d="M0,141.42H283v100c0,23.5-18,41.5-41.5,41.5H41.5c-23.5,0-41.5-18-41.5-41.5Z"/><g id="SVG"><path id="S" class="cls-4" d="M42.46,212.06a36.67,36.67,0,1,1,62.6-25.92H83.58a15.19,15.19,0,1,0-25.94,10.72h0c2.75,2.76,5,3.56,10.74,4.47h0c10.13,1,19.29,4.1,25.93,10.74h0A36.67,36.67,0,1,1,31.72,238H53.2a15.19,15.19,0,1,0,25.94-10.72h0c-2.75-2.75-6.69-3.7-10.74-4.45h0c-9.82-1.51-19.29-4.11-25.93-10.75Z"/><path id="V" class="cls-4" d="M178.4,149.47l-25.94,125.2H131l-25.92-125.2h21.48l15.2,73.33,15.18-73.33Z"/><path id="G" class="cls-4" d="M215.08,201.33h36.67V238h0a36.67,36.67,0,1,1-73.34,0h0V186.14h0a36.67,36.67,0,1,1,73.34,0H230.27a15.19,15.19,0,1,0-30.37,0V238h0a15.19,15.19,0,0,0,30.37,0h0V222.82H215.08V201.33Z"/></g></g></g></svg>